<svg xmlns="http://www.w3.org/2000/svg" version="1.1" height="600" width="960"><g></g><g transform="translate(480,300)scale(1.0105262994766235,1.0105262994766235)"><text style="font-size: 99px; opacity: 1; font-family: Impact; fill: rgb(57, 59, 121);" transform="translate(-56,131)rotate(0)scale(1,1)" text-anchor="middle">Cat</text><text style="font-size: 91px; opacity: 1; font-family: Impact; fill: rgb(82, 84, 163);" transform="translate(-173,-29)" text-anchor="middle">fish</text><text style="font-size: 89px; opacity: 1; font-family: Impact; fill: rgb(107, 110, 207);" transform="translate(52,55)rotate(0)scale(1,1)" text-anchor="middle">things</text><text style="font-size: 86px; opacity: 1; font-family: Impact; fill: rgb(156, 158, 222);" transform="translate(50,-20)rotate(0)scale(1,1)" text-anchor="middle">look</text><text style="font-size: 84px; opacity: 1; font-family: Impact; fill: rgb(99, 121, 57);" transform="translate(-211,32)rotate(0)scale(1,1)" text-anchor="middle">two</text><text style="font-size: 82px; opacity: 1; font-family: Impact; fill: rgb(140, 162, 82);" transform="translate(198,-8)rotate(0)scale(1,1)" text-anchor="middle">like</text><text style="font-size: 82px; opacity: 1; font-family: Impact; fill: rgb(181, 207, 107);" transform="translate(-181,100)rotate(0)scale(1,1)" text-anchor="middle">hat</text><text style="font-size: 80px; opacity: 1; font-family: Impact; fill: rgb(206, 219, 156);" transform="translate(-319,19)rotate(0)scale(1,1)" text-anchor="middle">Oh</text><text style="font-size: 78px; opacity: 1; font-family: Impact; fill: rgb(140, 109, 49);" transform="translate(233,63)rotate(0)scale(1,1)" text-anchor="middle">One</text><text style="font-size: 78px; opacity: 1; font-family: Impact; fill: rgb(189, 158, 57);" transform="translate(-246,-106)rotate(0)scale(1,1)" text-anchor="middle">mother</text><text style="font-size: 78px; opacity: 1; font-family: Impact; fill: rgb(231, 186, 82);" transform="translate(195,-77)rotate(0)scale(1,1)" text-anchor="middle">Now</text><text style="font-size: 78px; opacity: 1; font-family: Impact; fill: rgb(231, 203, 148);" transform="translate(104,131)rotate(0)scale(1,1)" text-anchor="middle">Thing</text><text style="font-size: 73px; opacity: 1; font-family: Impact; fill: rgb(132, 60, 57);" transform="translate(-346,-49)" text-anchor="middle">house</text><text style="font-size: 70px; opacity: 1; font-family: Impact; fill: rgb(173, 73, 74);" transform="translate(56,180)rotate(0)scale(1,1)" text-anchor="middle">saw</text><text style="font-size: 70px; opacity: 1; font-family: Impact; fill: rgb(214, 97, 107);" transform="translate(-13,-92)rotate(0)scale(1,1)" text-anchor="middle">know</text><text style="font-size: 70px; opacity: 1; font-family: Impact; fill: rgb(231, 150, 156);" transform="translate(273,116)" text-anchor="middle">good</text><text style="font-size: 70px; opacity: 1; font-family: Impact; fill: rgb(123, 65, 115);" transform="translate(-172,158)rotate(0)scale(1,1)" text-anchor="middle">fun</text><text style="font-size: 67px; opacity: 1; font-family: Impact; fill: rgb(165, 81, 148);" transform="translate(-93,215)rotate(0)scale(1,1)" text-anchor="middle">bump</text><text style="font-size: 63px; opacity: 1; font-family: Impact; fill: rgb(206, 109, 189);" transform="translate(235,-132)rotate(0)scale(1,1)" text-anchor="middle">hold</text><text style="font-size: 59px; opacity: 1; font-family: Impact; fill: rgb(222, 158, 214);" transform="translate(-176,-165)rotate(0)scale(1,1)" text-anchor="middle">wet</text><text style="font-size: 59px; opacity: 1; font-family: Impact; fill: rgb(57, 59, 121);" transform="translate(322,-8)rotate(0)scale(1,1)" text-anchor="middle">play</text><text style="font-size: 59px; opacity: 1; font-family: Impact; fill: rgb(82, 84, 163);" transform="translate(55,-145)rotate(0)scale(1,1)" text-anchor="middle">Sally</text><text style="font-size: 59px; opacity: 1; font-family: Impact; fill: rgb(107, 110, 207);" transform="translate(-302,78)rotate(0)scale(1,1)" text-anchor="middle">little</text><text style="font-size: 59px; opacity: 1; font-family: Impact; fill: rgb(156, 158, 222);" transform="translate(-300,130)" text-anchor="middle">away</text><text style="font-size: 59px; opacity: 1; font-family: Impact; fill: rgb(99, 121, 57);" transform="translate(-242,200)rotate(0)scale(1,1)" text-anchor="middle">fear</text><text style="font-size: 59px; opacity: 1; font-family: Impact; fill: rgb(140, 162, 82);" transform="translate(-6,-199)" text-anchor="middle">game</text><text style="font-size: 59px; opacity: 1; font-family: Impact; fill: rgb(181, 207, 107);" transform="translate(190,182)rotate(0)scale(1,1)" text-anchor="middle">came</text><text style="font-size: 59px; opacity: 1; font-family: Impact; fill: rgb(206, 219, 156);" transform="translate(41,230)" text-anchor="middle">box</text><text style="font-size: 54px; opacity: 1; font-family: Impact; fill: rgb(189, 158, 57);" transform="translate(-60,-19)rotate(0)scale(1,1)" text-anchor="middle">go</text><text style="font-size: 54px; opacity: 1; font-family: Impact; fill: rgb(231, 186, 82);" transform="translate(131,-188)" text-anchor="middle">ball</text><text style="font-size: 54px; opacity: 1; font-family: Impact; fill: rgb(231, 203, 148);" transform="translate(-99,48)rotate(0)scale(1,1)" text-anchor="middle">sit</text><text style="font-size: 54px; opacity: 1; font-family: Impact; fill: rgb(132, 60, 57);" transform="translate(-210,240)" text-anchor="middle">put</text><text style="font-size: 54px; opacity: 1; font-family: Impact; fill: rgb(173, 73, 74);" transform="translate(300,163)rotate(0)scale(1,1)" text-anchor="middle">pot</text><text style="font-size: 54px; opacity: 1; font-family: Impact; fill: rgb(214, 97, 107);" transform="translate(334,48)rotate(0)scale(1,1)" text-anchor="middle">ran</text><text style="font-size: 54px; opacity: 1; font-family: Impact; fill: rgb(231, 150, 156);" transform="translate(306,-59)rotate(0)scale(1,1)" text-anchor="middle">fast</text><text style="font-size: 54px; opacity: 1; font-family: Impact; fill: rgb(123, 65, 115);" transform="translate(-332,180)rotate(0)scale(1,1)" text-anchor="middle">big</text><text style="font-size: 48px; opacity: 1; font-family: Impact; fill: rgb(165, 81, 148);" transform="translate(-304,238)rotate(0)scale(1,1)" text-anchor="middle">sat</text><text style="font-size: 48px; opacity: 1; font-family: Impact; fill: rgb(206, 109, 189);" transform="translate(-48,-151)rotate(0)scale(1,1)" text-anchor="middle">day</text><text style="font-size: 48px; opacity: 1; font-family: Impact; fill: rgb(222, 158, 214);" transform="translate(390,154)rotate(0)scale(1,1)" text-anchor="middle">wish</text><text style="font-size: 48px; opacity: 1; font-family: Impact; fill: rgb(57, 59, 121);" transform="translate(108,-235)rotate(0)scale(1,1)" text-anchor="middle">went</text><text style="font-size: 48px; opacity: 1; font-family: Impact; fill: rgb(82, 84, 163);" transform="translate(393,104)rotate(0)scale(1,1)" text-anchor="middle">new</text><text style="font-size: 48px; opacity: 1; font-family: Impact; fill: rgb(107, 110, 207);" transform="translate(354,-117)" text-anchor="middle">tricks</text><text style="font-size: 48px; opacity: 1; font-family: Impact; fill: rgb(156, 158, 222);" transform="translate(-401,158)rotate(0)scale(1,1)" text-anchor="middle">tell</text><text style="font-size: 48px; opacity: 1; font-family: Impact; fill: rgb(99, 121, 57);" transform="translate(-402,-7)rotate(0)scale(1,1)" text-anchor="middle">cup</text><text style="font-size: 48px; opacity: 1; font-family: Impact; fill: rgb(140, 162, 82);" transform="translate(-384,222)rotate(0)scale(1,1)" text-anchor="middle">cake</text><text style="font-size: 48px; opacity: 1; font-family: Impact; fill: rgb(181, 207, 107);" transform="translate(206,-190)" text-anchor="middle">toy</text><text style="font-size: 48px; opacity: 1; font-family: Impact; fill: rgb(206, 219, 156);" transform="translate(411,198)" text-anchor="middle">ship</text><text style="font-size: 48px; opacity: 1; font-family: Impact; fill: rgb(140, 109, 49);" transform="translate(-393,64)rotate(0)scale(1,1)" text-anchor="middle">fan</text><text style="font-size: 48px; opacity: 1; font-family: Impact; fill: rgb(231, 186, 82);" transform="translate(-311,-170)rotate(0)scale(1,1)" text-anchor="middle">show</text><text style="font-size: 54px; opacity: 1; font-family: Impact; fill: rgb(140, 109, 49);" transform="translate(237,228)rotate(0)" text-anchor="middle">something</text></g></svg>